<svg width="56" height="49" viewBox="0 0 56 49" fill="none" xmlns="http://www.w3.org/2000/svg">
<path d="M41.6099 1.11443L2.20926 26.2057C1.41709 26.7102 1.18386 27.7613 1.68834 28.5535L11.6988 44.2729C12.2033 45.065 13.2544 45.2983 14.0466 44.7938L53.4472 19.7025C54.2394 19.198 54.4726 18.1469 53.9681 17.3547L43.9576 1.63535C43.4532 0.843176 42.402 0.609953 41.6099 1.11443Z" fill="#91CD86"/>
<path d="M46.6114 5.80993L51.3147 13.1887C50.6125 13.6359 50.0053 14.217 49.5277 14.8988C49.0501 15.5807 48.7115 16.3499 48.5312 17.1626C48.351 17.9753 48.3325 18.8156 48.477 19.6354C48.6215 20.4552 48.926 21.2386 49.3733 21.9407C49.4271 22.0257 49.4838 22.1093 49.5405 22.1915L17.9549 42.3072C17.9039 42.2221 17.8514 42.1343 17.7976 42.0493C17.3508 41.3467 16.7699 40.7391 16.0882 40.2611C15.4066 39.7831 14.6374 39.4441 13.8247 39.2634C13.0119 39.0828 12.1716 39.064 11.3516 39.2081C10.5316 39.3523 9.748 39.6566 9.04562 40.1036L4.34229 32.722C5.04446 32.2748 5.65168 31.6937 6.12926 31.0119C6.60685 30.33 6.94545 29.5608 7.12573 28.7481C7.30601 27.9354 7.32444 27.0951 7.17996 26.2753C7.03549 25.4555 6.73094 24.6721 6.2837 23.97C6.22985 23.885 6.17317 23.8014 6.11649 23.7192L37.6964 3.60352C37.7474 3.68854 37.7999 3.7764 37.8537 3.86143C38.3003 4.56495 38.8813 5.1735 39.5633 5.65227C40.2453 6.13104 41.0151 6.47063 41.8285 6.65161C42.6419 6.83259 43.483 6.8514 44.3037 6.70698C45.1244 6.56255 45.9086 6.25772 46.6114 5.80993Z" fill="#A9EA9C"/>
<path d="M13.1383 45.9135C12.7086 45.9142 12.2858 45.8063 11.909 45.6C11.5322 45.3936 11.2136 45.0954 10.9829 44.7331L0.971088 29.0118C0.607716 28.4413 0.485841 27.7498 0.632269 27.0894C0.778697 26.429 1.18144 25.8538 1.75191 25.4904L41.1471 0.399311C41.7177 0.0359385 42.4092 -0.0859363 43.0695 0.0604915C43.7299 0.206919 44.3051 0.609658 44.6686 1.18013L54.6789 16.8999C55.0423 17.4705 55.1642 18.162 55.0178 18.8224C54.8713 19.4828 54.4686 20.058 53.8981 20.4214L14.5029 45.5125C14.0956 45.7736 13.6221 45.9127 13.1383 45.9135ZM42.5146 1.7002C42.3544 1.7 42.1975 1.74573 42.0626 1.83199L2.66593 26.9245C2.47676 27.0465 2.34368 27.2385 2.29587 27.4584C2.24805 27.6784 2.2894 27.9083 2.41086 28.0978L12.417 43.8176C12.5392 44.0066 12.7313 44.1394 12.9512 44.1869C13.1712 44.2345 13.401 44.1929 13.5903 44.0713L52.9912 18.9887C53.1813 18.8677 53.3155 18.6761 53.3644 18.456C53.4133 18.236 53.3729 18.0056 53.2519 17.8154L43.2402 2.09274C43.1187 1.90335 42.9271 1.76984 42.7073 1.72146C42.6441 1.70723 42.5794 1.7001 42.5146 1.7002Z" fill="#1D6855"/>
<path d="M4.84827 27.9162L11.8501 23.4566C12.0797 23.3149 11.8671 22.9422 11.6361 23.0895L4.63287 27.5435C4.4033 27.6852 4.61586 28.0579 4.84685 27.9105L4.84827 27.9162Z" fill="white"/>
<path d="M12.8688 22.8022L16.3066 20.6128C16.5362 20.4711 16.3237 20.0984 16.0927 20.2458L12.6534 22.4352C12.4238 22.5769 12.6364 22.9496 12.8674 22.8022H12.8688Z" fill="white"/>
<path d="M14.0385 42.9049L30.2897 32.5601L32.5571 31.1118C32.7866 30.9701 32.5741 30.5974 32.3431 30.7448L16.099 41.0953L13.8316 42.5435C13.602 42.6852 13.8146 43.0579 14.0456 42.9106L14.0385 42.9049Z" fill="white"/>
<path d="M37.4358 28.0939L49.4187 20.4629L51.1277 19.3745C51.3573 19.2328 51.1447 18.8601 50.9137 19.0075L38.9322 26.6414L37.2232 27.7297C36.9936 27.8714 37.2062 28.2441 37.4372 28.0967L37.4358 28.0939Z" fill="white"/>
<path d="M29.4006 23.3448C28.9656 22.6618 28.2811 22.4563 27.2339 22.6858C26.4545 22.8276 26.1002 22.88 25.9075 22.5696C25.7658 22.3415 25.8451 21.9688 26.3213 21.6655C26.6607 21.4405 27.0498 21.3014 27.455 21.2602L27.1489 20.2314C26.7015 20.284 26.2723 20.4391 25.8947 20.6849L25.3676 19.8545L24.5386 20.3817L25.1253 21.3042C24.5442 21.9589 24.4635 22.734 24.8702 23.3731C25.318 24.0817 26.113 24.1823 27.1063 23.9584C27.805 23.7756 28.1522 23.8167 28.3364 24.1001C28.5475 24.4317 28.4101 24.8087 27.9113 25.1261C27.4896 25.3838 27.0165 25.5459 26.5253 25.6008L26.8442 26.6495C27.3326 26.5839 27.8029 26.421 28.2273 26.1705L28.7573 27.0037L29.5863 26.4766L29.4545 26.2697L29.0166 25.581C29.7733 24.8427 29.8201 24.0037 29.4006 23.3448Z" fill="#34B67A"/>
<path d="M27.0781 31.7707C25.6307 31.7729 24.2077 31.398 22.9493 30.6829C21.691 29.9677 20.6406 28.937 19.9019 27.6923C19.1632 26.4476 18.7616 25.0319 18.7366 23.5847C18.7116 22.1375 19.0642 20.7088 19.7595 19.4394C20.4549 18.1699 21.469 17.1036 22.702 16.3454C23.9349 15.5873 25.3442 15.1635 26.7908 15.1158C28.2374 15.0682 29.6715 15.3983 30.9517 16.0737C32.2318 16.749 33.3139 17.7463 34.0913 18.9672C34.893 20.2254 35.342 21.6759 35.3913 23.1669C35.4407 24.658 35.0886 26.1349 34.3719 27.4434C33.6551 28.7518 32.6001 29.8437 31.3171 30.605C30.034 31.3662 28.57 31.7688 27.0781 31.7707ZM27.0512 16.5256C25.5162 16.5279 24.0256 17.0408 22.8141 17.9834C21.6027 18.926 20.7392 20.2448 20.3596 21.7322C19.9801 23.2195 20.1061 24.7908 20.7178 26.1987C21.3294 27.6065 22.392 28.7709 23.7382 29.5085C25.0844 30.246 26.6377 30.5148 28.1535 30.2725C29.6692 30.0303 31.0613 29.2907 32.1105 28.1702C33.1597 27.0498 33.8064 25.6122 33.9487 24.0838C34.0911 22.5554 33.721 21.0231 32.8967 19.7282C32.4109 18.9609 31.7778 18.2975 31.034 17.7765C30.2901 17.2555 29.4504 16.8871 28.5632 16.6928C28.0668 16.5821 27.5598 16.526 27.0512 16.5256Z" fill="#91CD86"/>
<path d="M48.1522 12.6042L3.05342 24.7728C2.14668 25.0175 1.60995 25.9509 1.85461 26.8576L6.70943 44.8504C6.95408 45.7571 7.88748 46.2938 8.79422 46.0492L53.893 33.8806C54.7998 33.6359 55.3365 32.7025 55.0918 31.7958L50.237 13.803C49.9924 12.8963 49.059 12.3596 48.1522 12.6042Z" fill="#91CD86"/>
<path d="M51.523 18.5763L53.8031 27.0293C52.9994 27.246 52.2461 27.619 51.5865 28.1268C50.9269 28.6347 50.3737 29.2675 49.9587 29.9892C49.5437 30.7108 49.2748 31.5072 49.1676 32.3327C49.0603 33.1583 49.1168 33.9969 49.3336 34.8006C49.3605 34.8984 49.3889 34.9948 49.4187 35.0841L13.2643 44.8436C13.2417 44.7472 13.2176 44.648 13.1921 44.5502C12.9753 43.7465 12.6024 42.9932 12.0945 42.3336C11.5867 41.674 10.9538 41.1208 10.2322 40.7058C9.51052 40.2908 8.71418 40.0219 7.88862 39.9147C7.06307 39.8074 6.22448 39.8639 5.42073 40.0807L3.14062 31.6278C3.94441 31.411 4.69762 31.0381 5.35726 30.5302C6.01689 30.0223 6.57002 29.3895 6.98506 28.6679C7.40011 27.9462 7.66893 27.1499 7.77618 26.3243C7.88343 25.4988 7.82701 24.6602 7.61014 23.8564C7.58321 23.7586 7.55487 23.6623 7.52511 23.573L43.6794 13.8135C43.7021 13.9098 43.7262 14.009 43.7517 14.1068C43.9684 14.9106 44.3414 15.6638 44.8492 16.3234C45.3571 16.9831 45.9899 17.5362 46.7116 17.9513C47.4332 18.3663 48.2296 18.6351 49.0551 18.7424C49.8807 18.8496 50.7193 18.7932 51.523 18.5763Z" fill="#A9EA9C"/>
<path d="M8.34884 46.9596C7.78854 46.9576 7.24437 46.7719 6.79976 46.431C6.35514 46.09 6.03462 45.6127 5.88734 45.0721L1.0338 27.075C0.946772 26.7514 0.92437 26.4138 0.96787 26.0815C1.01137 25.7492 1.11992 25.4287 1.28732 25.1384C1.45472 24.8481 1.67768 24.5936 1.94347 24.3895C2.20926 24.1854 2.51266 24.0357 2.83634 23.9489L47.9311 11.7874C48.2545 11.7001 48.592 11.6773 48.9242 11.7204C49.2564 11.7636 49.5769 11.8717 49.8674 12.0387C50.1578 12.2057 50.4125 12.4283 50.6169 12.6937C50.8213 12.9591 50.9714 13.2622 51.0586 13.5857L55.9122 31.5828C55.9995 31.9062 56.0222 32.2437 55.9791 32.5759C55.936 32.9081 55.8278 33.2286 55.6608 33.519C55.4939 33.8094 55.2713 34.0641 55.0059 34.2685C54.7404 34.4729 54.4373 34.623 54.1139 34.7103L9.01345 46.8718C8.79674 46.9302 8.57328 46.9597 8.34884 46.9596ZM48.5943 13.3986C48.5201 13.3988 48.4462 13.4088 48.3746 13.4284L3.27422 25.5941C3.16589 25.6232 3.06438 25.6734 2.97553 25.7418C2.88669 25.8103 2.81226 25.8956 2.75654 25.993C2.70082 26.0903 2.66492 26.1977 2.65089 26.309C2.63686 26.4203 2.64498 26.5332 2.67479 26.6413L7.52834 44.6384C7.58709 44.856 7.72978 45.0413 7.92508 45.1537C8.12037 45.2661 8.3523 45.2964 8.5699 45.2379L53.6703 33.0721C53.7791 33.0438 53.8813 32.9942 53.9708 32.9262C54.0603 32.8582 54.1354 32.7731 54.1918 32.6758C54.2483 32.5785 54.2848 32.471 54.2994 32.3596C54.314 32.2481 54.3063 32.1348 54.2768 32.0263L49.4162 14.0292C49.3664 13.8489 49.259 13.6898 49.1104 13.5762C48.9617 13.4626 48.78 13.4007 48.5929 13.4L48.5943 13.3986Z" fill="#1D6855"/>
<path d="M9.35458 44.2417L27.9554 39.2238L30.5586 38.5153C30.6114 38.4989 30.6558 38.4627 30.6823 38.4142C30.7088 38.3657 30.7154 38.3087 30.7007 38.2555C30.6859 38.2022 30.651 38.1567 30.6033 38.1288C30.5556 38.1008 30.4989 38.0926 30.4452 38.1057L11.8473 43.1307L9.24405 43.8393C9.19123 43.8556 9.14685 43.8919 9.12031 43.9404C9.09378 43.9889 9.08719 44.0458 9.10194 44.0991C9.11669 44.1524 9.15162 44.1978 9.19932 44.2258C9.24701 44.2537 9.30372 44.262 9.35742 44.2488L9.35458 44.2417Z" fill="white"/>
<path d="M36.1136 37.1024L49.8297 33.4023L51.7853 32.8766C51.8381 32.8603 51.8825 32.824 51.909 32.7755C51.9355 32.727 51.9421 32.6701 51.9274 32.6168C51.9126 32.5635 51.8777 32.5181 51.83 32.4901C51.7823 32.4622 51.7256 32.4539 51.6719 32.4671L37.9558 36.1671L35.996 36.6928C35.9432 36.7091 35.8988 36.7454 35.8723 36.7939C35.8457 36.8424 35.8391 36.8993 35.8539 36.9526C35.8686 37.0059 35.9036 37.0513 35.9513 37.0793C35.999 37.1073 36.0557 37.1155 36.1094 37.1024H36.1136Z" fill="white"/>
<path d="M29.8561 30.1709C29.645 29.3886 29.0541 28.989 27.9856 28.8955C27.1977 28.8034 26.8519 28.7439 26.7555 28.3882C26.6847 28.1274 26.876 27.7958 27.4216 27.6485C27.8147 27.5346 28.2296 27.5185 28.6303 27.6017L28.6459 26.529C28.2034 26.4455 27.7475 26.4653 27.3139 26.5871L27.0574 25.6348L26.1093 25.8913L26.3927 26.947C25.6431 27.3976 25.3342 28.1133 25.5312 28.8445C25.748 29.6508 26.4764 29.9881 27.4896 30.0717C28.2109 30.1057 28.5297 30.2488 28.6233 30.5804C28.7253 30.9602 28.4815 31.2805 27.9147 31.4307C27.4351 31.551 26.9349 31.5646 26.4494 31.4704L26.4395 32.5672C26.9255 32.6506 27.4233 32.6357 27.9034 32.5233L28.1613 33.477L29.1093 33.2205L29.0455 32.9838L28.833 32.1959C29.7612 31.7113 30.0602 30.9248 29.8561 30.1709Z" fill="#34B67A"/>
<path d="M27.5844 37.8994C26.0304 37.8969 24.5081 37.4599 23.1894 36.6378C21.8707 35.8157 20.8082 34.6412 20.1219 33.247C19.4355 31.8528 19.1528 30.2945 19.3055 28.748C19.4582 27.2016 20.0403 25.7286 20.9861 24.4956C21.9319 23.2626 23.2036 22.3186 24.6576 21.7703C26.1116 21.222 27.69 21.0912 29.2145 21.3927C30.7389 21.6943 32.1486 22.4161 33.2844 23.4766C34.4202 24.5372 35.2368 25.8942 35.642 27.3945C35.9735 28.6306 36.0161 29.9265 35.7667 31.1818C35.5172 32.4371 34.9824 33.6182 34.2034 34.6337C33.4245 35.6492 32.4224 36.472 31.2746 37.0382C30.1269 37.6045 28.8642 37.8992 27.5844 37.8994ZM27.5957 22.65C26.1507 22.6504 24.7421 23.1035 23.5679 23.9457C22.3937 24.7878 21.5128 25.9767 21.0491 27.3453C20.5854 28.7139 20.5621 30.1934 20.9826 31.5759C21.4031 32.9584 22.2461 34.1744 23.3933 35.053C24.5405 35.9317 25.9342 36.4288 27.3784 36.4746C28.8227 36.5203 30.2451 36.1124 31.4456 35.3082C32.6461 34.5039 33.5645 33.3437 34.0716 31.9906C34.5788 30.6375 34.6492 29.1595 34.2731 27.7643C33.8795 26.2951 33.0113 24.997 31.8038 24.0721C30.5962 23.1472 29.1168 22.6473 27.5957 22.65Z" fill="#91CD86"/>
<path d="M50.0111 26.0912L3.33355 24.3062C2.39507 24.2703 1.60518 25.002 1.56929 25.9405L0.857142 44.5631C0.821254 45.5016 1.55295 46.2914 2.49143 46.3273L49.169 48.1123C50.1074 48.1482 50.8973 47.4165 50.9332 46.478L51.6454 27.8555C51.6813 26.917 50.9496 26.1271 50.0111 26.0912Z" fill="#91CD86"/>
<path d="M51.4535 32.7965L51.1177 41.5442C50.2856 41.5122 49.4553 41.6444 48.6744 41.9333C47.8934 42.2222 47.177 42.6622 46.5661 43.2281C45.9552 43.7939 45.4618 44.4746 45.1141 45.2313C44.7663 45.9879 44.5711 46.8056 44.5395 47.6377V47.9396L7.12826 46.5055C7.12826 46.4063 7.14243 46.3057 7.14526 46.2036C7.17732 45.3715 7.04512 44.5413 6.7562 43.7603C6.46728 42.9793 6.02731 42.2629 5.46143 41.652C4.89556 41.0412 4.21485 40.5478 3.45823 40.2C2.7016 39.8523 1.88387 39.6571 1.05176 39.6255L1.38761 30.8778C2.2197 30.9098 3.04995 30.7776 3.83093 30.4887C4.61191 30.1998 5.32831 29.7598 5.9392 29.1939C6.55008 28.6281 7.04348 27.9474 7.39121 27.1907C7.73893 26.4341 7.93417 25.6164 7.96576 24.7843C7.96576 24.6836 7.96576 24.5816 7.96576 24.4824L45.377 25.9165C45.377 26.0157 45.3629 26.1163 45.36 26.2184C45.328 27.0505 45.4602 27.8807 45.7491 28.6617C46.038 29.4427 46.478 30.1591 47.0438 30.7699C47.6097 31.3808 48.2904 31.8742 49.0471 32.222C49.8037 32.5697 50.6214 32.7649 51.4535 32.7965Z" fill="#A9EA9C"/>
<path d="M49.2317 48.9669H49.1325L2.45482 47.1757C2.12002 47.1631 1.79098 47.0847 1.4865 46.9449C1.18202 46.8051 0.908053 46.6067 0.680262 46.361C0.452471 46.1153 0.275313 45.8272 0.158907 45.513C0.0425009 45.1989 -0.0108724 44.8648 0.00183561 44.53L0.710382 25.9066C0.723164 25.5718 0.801779 25.2428 0.941739 24.9384C1.0817 24.6339 1.28026 24.3601 1.52608 24.1324C1.7719 23.9048 2.06017 23.7278 2.37441 23.6115C2.68865 23.4953 3.02271 23.4421 3.35751 23.455L50.0352 25.2434C50.37 25.2562 50.699 25.3348 51.0034 25.4747C51.3078 25.6147 51.5817 25.8133 51.8093 26.0591C52.037 26.3049 52.214 26.5932 52.3302 26.9074C52.4464 27.2217 52.4996 27.5557 52.4867 27.8905L51.7782 46.514C51.7529 47.1726 51.4736 47.796 50.9989 48.2533C50.5242 48.7106 49.8908 48.9663 49.2317 48.9669ZM49.1977 47.2664C49.3093 47.2708 49.4208 47.2531 49.5256 47.2144C49.6304 47.1756 49.7266 47.1166 49.8086 47.0406C49.8906 46.9647 49.9568 46.8733 50.0035 46.7718C50.0501 46.6702 50.0763 46.5605 50.0805 46.4488L50.7891 27.8253C50.7934 27.7137 50.7757 27.6022 50.737 27.4974C50.6982 27.3925 50.6392 27.2964 50.5633 27.2144C50.4873 27.1324 50.3959 27.0662 50.2944 27.0195C50.1928 26.9729 50.0831 26.9467 49.9714 26.9425L3.29941 25.1555C3.18739 25.1504 3.07545 25.1675 2.97005 25.2058C2.86465 25.2441 2.76787 25.3029 2.68529 25.3787C2.6027 25.4546 2.53594 25.5461 2.48885 25.6478C2.44176 25.7496 2.41526 25.8597 2.41089 25.9718L1.70235 44.5952C1.69798 44.7069 1.71568 44.8183 1.75443 44.9232C1.79317 45.028 1.8522 45.1242 1.92815 45.2062C2.00409 45.2882 2.09545 45.3544 2.19701 45.401C2.29857 45.4477 2.40833 45.4739 2.52001 45.4781L49.1977 47.2664Z" fill="#1D6855"/>
<path d="M34.4 28.8965L42.6957 29.214C43.2427 29.2352 43.2427 28.385 42.6957 28.3637L34.4 28.0463C33.853 28.025 33.853 28.8753 34.4 28.8965Z" fill="white"/>
<path d="M44.8795 29.2608L48.9522 29.4167C49.4992 29.4379 49.4992 28.5877 48.9522 28.5664L44.8795 28.4105C44.3325 28.3893 44.3325 29.2395 44.8795 29.2608Z" fill="white"/>
<path d="M34.7204 19.4791L42.7879 17.5207C43.3193 17.3918 43.094 16.5713 42.5612 16.7002L34.4936 18.6586C33.9622 18.7876 34.1876 19.6081 34.7204 19.4791Z" fill="white"/>
<path d="M44.8996 16.9709L48.8604 16.0129C49.3918 15.884 49.1665 15.0635 48.6336 15.1924L44.6728 16.1546C44.1414 16.2836 44.3668 17.1041 44.8996 16.9751V16.9709Z" fill="white"/>
<path d="M4.11142 43.7139L12.4071 44.0314C12.9541 44.0526 12.9541 43.2024 12.4071 43.1811L4.11142 42.8637C3.56442 42.8424 3.56442 43.6927 4.11142 43.7139Z" fill="white"/>
<path d="M14.5977 44.0714L18.6705 44.2272C19.2175 44.2485 19.2175 43.3982 18.6705 43.377L14.5977 43.2211C14.0508 43.1998 14.0508 44.0501 14.5977 44.0714Z" fill="white"/>
<path d="M27.3195 37.4266C27.3507 36.6174 26.9043 36.0591 25.9123 35.6524C25.1868 35.3293 24.8736 35.1706 24.8878 34.8021C24.8977 34.5329 25.1783 34.2721 25.738 34.2948C26.1471 34.303 26.5479 34.411 26.9057 34.6094L27.2401 33.5905C26.8424 33.3788 26.401 33.2619 25.9506 33.249L25.9888 32.257L25.0068 32.2188L24.9643 33.3113C24.114 33.5182 23.6067 34.1106 23.5769 34.8701C23.5444 35.7048 24.1438 36.2433 25.0819 36.6231C25.7607 36.8697 26.0214 37.1021 26.0087 37.445C25.9931 37.8375 25.6657 38.0713 25.0762 38.0487C24.5803 38.0218 24.0965 37.8858 23.6591 37.6505L23.3247 38.6949C23.7659 38.9196 24.2479 39.0531 24.7418 39.0874L24.7035 40.0794L25.6856 40.1176L25.6955 39.8725L25.7267 39.0576C26.7739 38.8706 27.2897 38.2074 27.3195 37.4266Z" fill="#91CD86"/>
<path d="M25.3467 43.2322C25.2522 43.2322 25.161 43.2322 25.0732 43.2322C23.6787 43.1788 22.3314 42.7131 21.2017 41.8939C20.0719 41.0748 19.2104 39.9391 18.7261 38.6303C18.2418 37.3216 18.1565 35.8986 18.4809 34.5414C18.8053 33.1842 19.5249 31.9536 20.5487 31.0053C21.5725 30.0571 22.8545 29.4337 24.2325 29.214C25.6106 28.9943 27.0229 29.1882 28.2907 29.7711C29.5586 30.354 30.6252 31.2999 31.3555 32.4889C32.0859 33.678 32.4472 35.057 32.3939 36.4514C32.3207 38.2725 31.5466 39.9948 30.2333 41.2585C28.92 42.5221 27.1692 43.2293 25.3467 43.2322ZM25.3467 30.5379C23.8909 30.5683 22.5034 31.1607 21.4746 32.191C20.4457 33.2213 19.8553 34.6096 19.8269 36.0654C19.7985 37.5211 20.3344 38.9314 21.3223 40.0011C22.3102 41.0707 23.6736 41.7167 25.127 41.8038H25.3452C26.8024 41.8013 28.2021 41.2355 29.2516 40.2247C30.3012 39.214 30.9193 37.8366 30.9768 36.3806C31.0052 35.6406 30.8876 34.9022 30.6307 34.2076C30.3737 33.513 29.9825 32.8759 29.4793 32.3325C28.9761 31.7892 28.3708 31.3503 27.6979 31.0409C27.025 30.7315 26.2978 30.5577 25.5578 30.5294L25.3467 30.5379Z" fill="#91CD86"/>
</svg>
