<svg width="24" height="24" viewBox="0 0 24 24" fill="none" xmlns="http://www.w3.org/2000/svg">
<path d="M19.5 9H13.5V3H4.5V21H19.5V9ZM18.879 7.5L15 3.621V7.5H18.879ZM3.75 1.5H15L21 7.5V21.75C21 21.9489 20.921 22.1397 20.7803 22.2803C20.6397 22.421 20.4489 22.5 20.25 22.5H3.75C3.55109 22.5 3.36032 22.421 3.21967 22.2803C3.07902 22.1397 3 21.9489 3 21.75V2.25C3 2.05109 3.07902 1.86032 3.21967 1.71967C3.36032 1.57902 3.55109 1.5 3.75 1.5ZM7.5 12H16.5V13.5H7.5V12ZM7.5 7.5H11.25V9H7.5V7.5ZM7.5 16.5H16.5V18H7.5V16.5Z" fill="#0F4880"/>
</svg>
