<svg width="36" height="36" viewBox="0 0 36 36" fill="none" xmlns="http://www.w3.org/2000/svg">
<path d="M28.5 16.4999H10.71L16.155 9.95993C16.4096 9.6536 16.5321 9.25868 16.4955 8.86204C16.459 8.4654 16.2663 8.09953 15.96 7.84493C15.6537 7.59032 15.2588 7.46782 14.8621 7.50439C14.4655 7.54096 14.0996 7.7336 13.845 8.03993L6.345 17.0399C6.29454 17.1115 6.24942 17.1867 6.21 17.2649C6.21 17.3399 6.21 17.3849 6.105 17.4599C6.03701 17.6319 6.00141 17.815 6 17.9999C6.00141 18.1849 6.03701 18.3679 6.105 18.5399C6.105 18.6149 6.105 18.6599 6.21 18.7349C6.24942 18.8131 6.29454 18.8883 6.345 18.9599L13.845 27.9599C13.986 28.1292 14.1626 28.2654 14.3623 28.3588C14.5619 28.4521 14.7796 28.5003 15 28.4999C15.3505 28.5006 15.6901 28.3785 15.96 28.1549C16.1119 28.029 16.2374 27.8744 16.3295 27.6998C16.4215 27.5253 16.4782 27.3344 16.4963 27.1379C16.5144 26.9414 16.4936 26.7433 16.435 26.5549C16.3765 26.3665 16.2813 26.1915 16.155 26.0399L10.71 19.4999H28.5C28.8978 19.4999 29.2794 19.3419 29.5607 19.0606C29.842 18.7793 30 18.3978 30 17.9999C30 17.6021 29.842 17.2206 29.5607 16.9393C29.2794 16.658 28.8978 16.4999 28.5 16.4999Z" fill="black"/>
</svg>
