<svg width="56" height="56" viewBox="0 0 56 56" fill="none" xmlns="http://www.w3.org/2000/svg">
<path d="M28 56C43.464 56 56 43.464 56 28C56 12.536 43.464 0 28 0C12.536 0 0 12.536 0 28C0 43.464 12.536 56 28 56Z" fill="#627EEA"/>
<path d="M28.8716 7V22.5225L41.9913 28.385L28.8716 7Z" fill="white" fill-opacity="0.602"/>
<path d="M28.8715 7L15.75 28.385L28.8715 22.5225V7Z" fill="white"/>
<path d="M28.8716 38.4441V48.9914L42.0001 30.8281L28.8716 38.4441Z" fill="white" fill-opacity="0.602"/>
<path d="M28.8715 48.9914V38.4424L15.75 30.8281L28.8715 48.9914Z" fill="white"/>
<path d="M28.8716 36.0031L41.9913 28.3854L28.8716 22.5264V36.0031Z" fill="white" fill-opacity="0.2"/>
<path d="M15.75 28.3854L28.8715 36.0031V22.5264L15.75 28.3854Z" fill="white" fill-opacity="0.602"/>
</svg>
