<svg width="41" height="40" viewBox="0 0 41 40" fill="none" xmlns="http://www.w3.org/2000/svg">
<circle cx="11.25" cy="28.25" r="10.25" stroke="#0F4880" stroke-width="2"/>
<circle cx="29.25" cy="28.25" r="10.25" stroke="#0F4880" stroke-width="2"/>
<circle cx="20.25" cy="10.25" r="8.75" stroke="#FF69F0" stroke-width="2"/>
<rect x="12" y="14" width="16.5" height="15.75" rx="2.25" fill="white"/>
<path d="M17.933 25.375C17.711 25.375 17.507 25.321 17.321 25.213C17.141 25.105 16.997 24.958 16.889 24.772C16.781 24.586 16.727 24.382 16.727 24.16V23.728H17.807V24.124C17.807 24.172 17.822 24.211 17.852 24.241C17.882 24.271 17.921 24.286 17.969 24.286H21.947C21.995 24.286 22.034 24.271 22.064 24.241C22.1 24.211 22.118 24.172 22.118 24.124V22.837C22.118 22.795 22.1 22.759 22.064 22.729C22.034 22.693 21.995 22.675 21.947 22.675H17.933C17.711 22.675 17.507 22.621 17.321 22.513C17.141 22.405 16.997 22.261 16.889 22.081C16.781 21.895 16.727 21.691 16.727 21.469V20.11C16.727 19.888 16.781 19.684 16.889 19.498C16.997 19.312 17.141 19.165 17.321 19.057C17.507 18.949 17.711 18.895 17.933 18.895H21.992C22.214 18.895 22.415 18.949 22.595 19.057C22.781 19.165 22.928 19.312 23.036 19.498C23.15 19.684 23.207 19.888 23.207 20.11V20.542H22.118V20.146C22.118 20.098 22.1 20.059 22.064 20.029C22.034 19.999 21.995 19.984 21.947 19.984H17.969C17.921 19.984 17.882 19.999 17.852 20.029C17.822 20.059 17.807 20.098 17.807 20.146V21.433C17.807 21.475 17.822 21.514 17.852 21.55C17.882 21.58 17.921 21.595 17.969 21.595H21.992C22.214 21.595 22.415 21.649 22.595 21.757C22.781 21.865 22.928 22.012 23.036 22.198C23.15 22.378 23.207 22.579 23.207 22.801V24.16C23.207 24.382 23.15 24.586 23.036 24.772C22.928 24.958 22.781 25.105 22.595 25.213C22.415 25.321 22.214 25.375 21.992 25.375H17.933Z" fill="#0F4880"/>
</svg>
