<svg width="56" height="56" viewBox="0 0 56 56" fill="none" xmlns="http://www.w3.org/2000/svg">
<circle cx="28" cy="28" r="27.5" fill="#D9D9D9" stroke="#0F4880"/>
<path d="M32.8476 23.8665L32.8376 23.9218H32.8937H37C37.2859 23.9218 37.5602 24.0354 37.7623 24.2376C37.9645 24.4397 38.0781 24.714 38.0781 24.9999C38.0781 25.2858 37.9645 25.5601 37.7623 25.7623C37.5602 25.9644 37.2859 26.078 37 26.078H32.4841H32.4449L32.4379 26.1165L31.7564 29.8665L31.7463 29.9218H31.8025H35.5C35.7859 29.9218 36.0602 30.0354 36.2623 30.2376C36.4645 30.4397 36.5781 30.714 36.5781 30.9999C36.5781 31.2858 36.4645 31.5601 36.2623 31.7622C36.0602 31.9644 35.7859 32.078 35.5 32.078H31.3937H31.3546L31.3476 32.1165L30.5611 36.4468L30.5611 36.4469C30.516 36.6953 30.3853 36.92 30.1915 37.0819C29.9978 37.2438 29.7534 37.3326 29.5009 37.3327H29.5008C29.4358 37.3329 29.371 37.3269 29.3072 37.3148L29.3068 37.3147C29.1671 37.2894 29.0337 37.2368 28.9144 37.1598C28.7951 37.0828 28.6921 36.983 28.6115 36.8661C28.5309 36.7493 28.4741 36.6176 28.4445 36.4787C28.4149 36.3399 28.413 36.1965 28.4389 36.0569L28.4389 36.0567L29.1524 32.1333L29.1624 32.078H29.1063H25.3937H25.3546L25.3476 32.1165L24.5601 36.4421L24.5601 36.4422C24.5151 36.6906 24.3843 36.9153 24.1906 37.0772C23.9968 37.2391 23.7524 37.3279 23.5 37.328L23.4988 37.328C23.4344 37.3296 23.37 37.3252 23.3065 37.3147C23.1669 37.2893 23.0336 37.2367 22.9144 37.1598C22.7951 37.0828 22.6921 36.983 22.6115 36.8661C22.5309 36.7493 22.4741 36.6176 22.4445 36.4787C22.4149 36.3399 22.413 36.1965 22.4389 36.0569L22.4389 36.0567L23.1524 32.1333L23.1624 32.078H23.1063H19C18.7141 32.078 18.4398 31.9644 18.2377 31.7622C18.0355 31.5601 17.9219 31.2858 17.9219 30.9999C17.9219 30.714 18.0355 30.4397 18.2377 30.2376C18.4398 30.0354 18.7141 29.9218 19 29.9218H23.5159H23.5551L23.5621 29.8833L24.2436 26.1333L24.2537 26.078H24.1975H20.5C20.2141 26.078 19.9398 25.9644 19.7377 25.7623C19.5355 25.5601 19.4219 25.2858 19.4219 24.9999C19.4219 24.714 19.5355 24.4397 19.7377 24.2376C19.9398 24.0354 20.2141 23.9218 20.5 23.9218H24.6063H24.6454L24.6524 23.8833L25.4389 19.5567C25.4389 19.5567 25.4389 19.5567 25.4389 19.5567C25.4643 19.4174 25.5169 19.2844 25.5936 19.1654C25.6704 19.0464 25.7698 18.9436 25.8863 18.863C26.0028 18.7824 26.134 18.7256 26.2724 18.6957C26.4109 18.6658 26.5538 18.6635 26.6932 18.6888C26.8325 18.7142 26.9655 18.7668 27.0845 18.8435C27.2035 18.9203 27.3063 19.0197 27.3869 19.1362C27.4675 19.2527 27.5243 19.3839 27.5542 19.5223C27.5841 19.6608 27.5864 19.8037 27.5611 19.9431L27.5611 19.9431L26.8476 23.8665L26.8376 23.9218H26.8937H30.6063H30.6454L30.6524 23.8833L31.4389 19.5567C31.4902 19.2753 31.6511 19.0258 31.8863 18.863C32.1215 18.7003 32.4118 18.6376 32.6932 18.6888C32.9746 18.7401 33.2241 18.901 33.3869 19.1362C33.5496 19.3714 33.6123 19.6617 33.5611 19.9431L33.5611 19.9431L32.8476 23.8665ZM29.5159 29.9218H29.5551L29.5621 29.8833L30.2436 26.1333L30.2537 26.078H30.1975H26.4841H26.4449L26.4379 26.1165L25.7564 29.8665L25.7463 29.9218H25.8025H29.5159Z" fill="#0F4880" stroke="#0F4880" stroke-width="0.09375"/>
</svg>
