<svg width="24" height="24" viewBox="0 0 24 24" fill="none" xmlns="http://www.w3.org/2000/svg">
<path d="M5.67582 4.25718C9.60382 1.03818 15.4088 1.26218 19.0758 4.92918C22.9808 8.83418 22.9808 15.1662 19.0758 19.0712C15.1708 22.9762 8.83882 22.9762 4.93382 19.0712C3.73562 17.8743 2.86125 16.3926 2.39281 14.7652C1.92438 13.1377 1.87723 11.4179 2.25582 9.76718L2.33282 9.45418L4.26682 9.96418C3.78736 11.7864 3.96651 13.7195 4.77269 15.4226C5.57888 17.1257 6.96035 18.4896 8.67365 19.2739C10.3869 20.0582 12.3221 20.2125 14.1381 19.7098C15.954 19.207 17.5343 18.0794 18.6002 16.5256C19.6662 14.9718 20.1496 13.0917 19.9651 11.2164C19.7806 9.34121 18.9401 7.5913 17.5917 6.27508C16.2433 4.95887 14.4736 4.16084 12.5945 4.02165C10.7154 3.88245 8.8474 4.41101 7.31982 5.51418L7.09982 5.68018L8.11682 6.69718L3.52082 7.75718L4.58082 3.16118L5.67582 4.25718ZM13.0048 6.00018V8.00018H15.5048V10.0002H10.0048C9.87987 9.99995 9.75937 10.0465 9.66703 10.1307C9.5747 10.2149 9.51723 10.3306 9.50594 10.455C9.49465 10.5794 9.53036 10.7036 9.60603 10.803C9.68171 10.9024 9.79187 10.9699 9.91482 10.9922L10.0048 11.0002H14.0048C14.6679 11.0002 15.3037 11.2636 15.7726 11.7324C16.2414 12.2013 16.5048 12.8371 16.5048 13.5002C16.5048 14.1632 16.2414 14.7991 15.7726 15.2679C15.3037 15.7368 14.6679 16.0002 14.0048 16.0002H13.0048V18.0002H11.0048V16.0002H8.50482V14.0002H14.0048C14.1298 14.0004 14.2503 13.9539 14.3426 13.8697C14.4349 13.7855 14.4924 13.6698 14.5037 13.5454C14.515 13.4209 14.4793 13.2968 14.4036 13.1973C14.3279 13.0979 14.2178 13.0304 14.0948 13.0082L14.0048 13.0002H10.0048C9.34177 13.0002 8.70589 12.7368 8.23705 12.2679C7.76821 11.7991 7.50482 11.1632 7.50482 10.5002C7.50482 9.83714 7.76821 9.20125 8.23705 8.73241C8.70589 8.26357 9.34177 8.00018 10.0048 8.00018H11.0048V6.00018H13.0048Z" fill="#0F4880"/>
</svg>
